<?xml version="1.0" encoding="iso-8859-1"?>
<!-- Generator: Adobe Illustrator 19.0.0, SVG Export Plug-In . SVG Version: 6.00 Build 0)  -->
<svg version="1.1" id="Capa_1" xmlns="http://www.w3.org/2000/svg" xmlns:xlink="http://www.w3.org/1999/xlink" x="0px" y="0px"
	 viewBox="0 0 512 512" style="enable-background:new 0 0 512 512;" xml:space="preserve">
<g>
	<g>
		<path d="M179.521,197.381c-4.142,0-7.5,3.357-7.5,7.5v32.558c0,4.143,3.358,7.5,7.5,7.5c4.142,0,7.5-3.357,7.5-7.5v-32.558
			C187.021,200.738,183.664,197.381,179.521,197.381z"/>
	</g>
</g>
<g>
	<g>
		<path d="M151.195,197.381c-4.142,0-7.5,3.357-7.5,7.5v32.558c0,4.143,3.358,7.5,7.5,7.5c4.142,0,7.5-3.357,7.5-7.5v-32.558
			C158.695,200.738,155.338,197.381,151.195,197.381z"/>
	</g>
</g>
<g>
	<g>
		<path d="M122.87,197.381c-4.142,0-7.5,3.357-7.5,7.5v32.558c0,4.143,3.358,7.5,7.5,7.5c4.142,0,7.5-3.357,7.5-7.5v-32.558
			C130.37,200.738,127.013,197.381,122.87,197.381z"/>
	</g>
</g>
<g>
	<g>
		<path d="M78.948,416.636h-7.461c-4.142,0-7.5,3.357-7.5,7.5s3.358,7.5,7.5,7.5h7.461c4.142,0,7.5-3.357,7.5-7.5
			S83.091,416.636,78.948,416.636z"/>
	</g>
</g>
<g>
	<g>
		<path d="M332.479,253.835c-4.142,0-7.5,3.357-7.5,7.5v32.558c0,4.143,3.358,7.5,7.5,7.5c4.142,0,7.5-3.357,7.5-7.5v-32.558
			C339.979,257.192,336.622,253.835,332.479,253.835z"/>
	</g>
</g>
<g>
	<g>
		<path d="M360.805,253.835c-4.142,0-7.5,3.357-7.5,7.5v32.558c0,4.143,3.358,7.5,7.5,7.5c4.142,0,7.5-3.357,7.5-7.5v-32.558
			C368.305,257.192,364.948,253.835,360.805,253.835z"/>
	</g>
</g>
<g>
	<g>
		<path d="M389.13,253.835c-4.142,0-7.5,3.357-7.5,7.5v32.558c0,4.143,3.358,7.5,7.5,7.5c4.142,0,7.5-3.357,7.5-7.5v-32.558
			C396.63,257.192,393.273,253.835,389.13,253.835z"/>
	</g>
</g>
<g>
	<g>
		<path d="M473.109,449.2V302.957c0-4.143-3.358-7.5-7.5-7.5c-4.142,0-7.5,3.357-7.5,7.5v51.603h-18.575v-1.147
			c0-4.143-3.358-7.5-7.5-7.5h-62.731c-4.142,0-7.5,3.357-7.5,7.5v1.147H263.5V232.184l194.609,0.004V271c0,4.143,3.358,7.5,7.5,7.5
			c4.142,0,7.5-3.357,7.5-7.5V118.855c0-7.313-2.846-14.179-8.006-19.323c-5.163-5.163-12.025-8.007-19.324-8.007
			c-15.07,0-27.33,12.26-27.33,27.33v98.328h-1.992v-133.4c0-15.068-12.259-27.328-27.328-27.328
			c-15.068,0-27.328,12.26-27.328,27.328v133.4h-1.996v-133.4c0-15.068-12.259-27.328-27.328-27.328
			c-15.069,0-27.328,12.26-27.328,27.328V133c0,4.143,3.358,7.5,7.5,7.5c4.142,0,7.5-3.357,7.5-7.5V83.783
			c0-6.798,5.53-12.328,12.328-12.328c6.797,0,12.328,5.53,12.328,12.328v133.4h-24.656v-52.865c0-4.143-3.358-7.5-7.5-7.5
			c-4.142,0-7.5,3.357-7.5,7.5v52.865h-1.995V98.395c0-15.068-12.259-27.328-27.328-27.328c-4.434,0-8.621,1.068-12.328,2.951
			V41.939c0-15.068-12.259-27.328-27.328-27.328c-15.068,0-27.328,12.26-27.328,27.328V160.73h-1.995V27.328
			C206.849,12.26,194.591,0,179.521,0c-15.068,0-27.328,12.26-27.328,27.328V160.73h-1.996V27.328C150.198,12.26,137.938,0,122.87,0
			c-15.069,0-27.328,12.26-27.328,27.328V160.73H93.55V62.4c0-15.07-12.26-27.33-27.33-27.33c-7.299,0-14.161,2.844-19.316,7.999
			c-5.168,5.153-8.014,12.019-8.014,19.331v105.811c0,0.006-0.001,0.013-0.001,0.019v224.515c-3.965,0.199-7.121,3.466-7.121,7.481
			v47.818c0,4.143,3.358,7.5,7.5,7.5h67.615c4.142,0,7.5-3.357,7.5-7.5s-3.358-7.5-7.5-7.5H46.769V407.73h185.77l15.961,29.485v3.33
			H138.667c-4.142,0-7.5,3.357-7.5,7.5s3.358,7.5,7.5,7.5h103.164c-0.057,0.371-0.095,0.749-0.095,1.136V504.5
			c0,4.143,3.358,7.5,7.5,7.5h223.495c4.142,0,7.5-3.357,7.5-7.5v-47.819C480.232,452.666,477.075,449.398,473.109,449.2z
			 M433.451,118.855c0-6.799,5.531-12.33,12.33-12.33c3.292,0,6.387,1.283,8.725,3.621c2.325,2.317,3.605,5.41,3.605,8.709v98.328
			h-24.66V118.855z M376.802,83.783c0-6.798,5.53-12.328,12.328-12.328c6.798,0,12.328,5.53,12.328,12.328v133.4h-24.656V83.783z
			 M263.5,168.23v-0.002V98.395c0-6.798,5.53-12.329,12.328-12.329c6.798,0,12.328,5.53,12.328,12.328v118.789H263.5V168.23z
			 M223.844,41.939c0-6.798,5.53-12.328,12.328-12.328c6.797,0,12.328,5.53,12.328,12.328v56.455v62.334h-24.656V41.939z
			 M167.193,27.328c0-6.798,5.53-12.328,12.328-12.328c6.798,0,12.328,5.53,12.328,12.328v133.4h-24.656V27.328z M110.542,27.328
			c0-6.798,5.53-12.328,12.328-12.328c6.797,0,12.328,5.53,12.328,12.328v133.4h-24.656V27.328z M53.891,62.4
			c0-3.297,1.281-6.391,3.613-8.717c2.329-2.329,5.425-3.612,8.716-3.612c6.798,0,12.33,5.531,12.33,12.33v98.33H53.891V62.4z
			 M53.891,175.732l194.61-0.002v57.03c-3.707-1.882-7.894-2.951-12.328-2.951c-15.068,0.001-27.328,12.259-27.328,27.328v40.974
			h-58.646v-1.153c0-4.143-3.358-7.5-7.5-7.5H79.966c-4.142,0-7.5,3.357-7.5,7.5v1.153H53.891V175.732z M208.844,313.11v27.729
			h-58.646V313.11H208.844z M111.333,333.963h23.866v14.505H87.466v-0.041c0-0.029,0.004-0.058,0.004-0.087
			s-0.004-0.058-0.004-0.087v-43.796h47.732v14.506h-23.866c-4.142,0-7.5,3.357-7.5,7.5S107.19,333.963,111.333,333.963z
			 M53.891,313.11h18.576v27.729H53.891V313.11z M53.891,392.727V355.84h18.576v0.128c0,4.143,3.358,7.5,7.5,7.5h62.732
			c4.142,0,7.5-3.357,7.5-7.5v-0.128h58.95c0.721,7.004,2.797,13.849,6.156,20.053l9.115,16.838L53.891,392.727z M248.502,362.06
			v42.73v0.917l-4.859-8.974c-0.026-0.05-0.053-0.099-0.08-0.147l-15.067-27.833c-3.042-5.62-4.65-11.969-4.65-18.36v-93.255
			c0-6.797,5.53-12.327,12.328-12.327c6.797,0,12.328,5.53,12.328,12.327V362.06z M439.534,369.56h18.575v27.73h-18.575V369.56z
			 M376.804,390.416h23.866c4.142,0,7.5-3.357,7.5-7.5s-3.358-7.5-7.5-7.5h-23.866V360.91h47.731v0.002v1.07
			c0,0.026-0.004,0.051-0.004,0.077s0.004,0.051,0.004,0.077v42.576c0,0.026-0.004,0.051-0.004,0.077s0.004,0.051,0.004,0.077v0.055
			h-47.731V390.416z M263.5,369.56h98.302v27.73H263.5V369.56z M263.5,412.29h98.302v0.133c0,4.143,3.358,7.5,7.5,7.5h62.731
			c4.142,0,7.5-3.357,7.5-7.5v-0.133h18.575v36.891H263.5V412.29z M465.232,497H256.737v-32.819h208.495V497z"/>
	</g>
</g>
<g>
	<g>
		<path d="M440.513,473.091h-7.461c-4.142,0-7.5,3.357-7.5,7.5s3.358,7.5,7.5,7.5h7.461c4.142,0,7.5-3.357,7.5-7.5
			S444.654,473.091,440.513,473.091z"/>
	</g>
</g>
<g>
</g>
<g>
</g>
<g>
</g>
<g>
</g>
<g>
</g>
<g>
</g>
<g>
</g>
<g>
</g>
<g>
</g>
<g>
</g>
<g>
</g>
<g>
</g>
<g>
</g>
<g>
</g>
<g>
</g>
</svg>
