<?xml version="1.0" encoding="iso-8859-1"?>
<!-- Generator: Adobe Illustrator 18.0.0, SVG Export Plug-In . SVG Version: 6.00 Build 0)  -->
<!DOCTYPE svg PUBLIC "-//W3C//DTD SVG 1.1//EN" "http://www.w3.org/Graphics/SVG/1.1/DTD/svg11.dtd">
<svg version="1.1" id="Capa_1" xmlns="http://www.w3.org/2000/svg" xmlns:xlink="http://www.w3.org/1999/xlink" x="0px" y="0px"
	 viewBox="0 0 447.459 447.459" style="enable-background:new 0 0 447.459 447.459;" xml:space="preserve">
<g>
	<path d="M385.1,148.907c-53.618-4.738-107.911-7.141-161.37-7.141c-53.46,0-107.753,2.402-161.371,7.141
		c-2.245,0.198-4.188,1.637-5.034,3.727c-16.103,39.801-15.188,78.539,2.794,118.426c0.516,1.144,1.376,2.097,2.461,2.726
		c23.799,13.79,49.852,24.406,77.436,31.554c0.504,0.131,1.011,0.193,1.509,0.193c2.666,0,5.1-1.79,5.802-4.489
		c11.769-45.188,41.758-74.387,76.402-74.387s64.633,29.199,76.401,74.387c0.834,3.204,4.109,5.128,7.311,4.296
		c27.581-7.146,53.633-17.762,77.436-31.554c1.085-0.629,1.946-1.582,2.461-2.726c17.983-39.887,18.897-78.625,2.794-118.426
		C389.289,150.544,387.345,149.105,385.1,148.907z M67.117,160.537c16.76-1.446,33.585-2.638,50.424-3.623l-58.125,70.739
		C56.014,205.3,58.579,183.087,67.117,160.537z M62.597,242.683l71.198-86.648c16.588-0.823,33.177-1.44,49.723-1.811
		L86.131,272.756c-5.389-2.639-10.676-5.436-15.853-8.388C67.099,257.104,64.545,249.881,62.597,242.683z M137.35,292.194
		c-13.78-3.849-27.132-8.609-39.967-14.23l101.887-124.01c8.168-0.112,16.326-0.188,24.46-0.188c31.599,0,63.491,0.857,95.36,2.532
		l-56.832,69.171c-11.769-7.004-24.813-10.814-38.528-10.814C185.018,214.655,151.599,244.882,137.35,292.194z M272.14,232.345
		l61.78-75.193c15.502,0.941,30.99,2.053,46.422,3.385c0.644,1.7,1.243,3.398,1.819,5.095l-82.656,100.617
		C292.152,252.417,282.842,240.937,272.14,232.345z M305.156,278.275l81.009-98.612c2.497,10.855,3.594,21.662,3.286,32.476
		l-61.055,74.325c-6.006,2.089-12.103,4.003-18.287,5.73C308.656,287.369,306.994,282.731,305.156,278.275z M377.182,264.368
		c-8.325,4.747-16.938,9.086-25.798,13.018l35.501-43.217C384.844,244.183,381.615,254.235,377.182,264.368z"/>
	<path d="M441.459,170.016h-18.116c-1.541-6.542-3.461-13.076-5.79-19.597c-5.657-15.842-20.196-27.001-37.041-28.429
		c-104.035-8.817-209.533-8.817-313.567,0c-16.844,1.428-31.384,12.586-37.041,28.428c-2.329,6.521-4.249,13.055-5.79,19.598H6
		c-3.313,0-6,2.687-6,6v71.058c0,3.313,2.687,6,6,6h19.645c3.342,12.291,8.053,24.558,14.161,36.777c0.5,1,1.269,1.841,2.221,2.427
		c28.014,17.246,58.946,30.295,91.938,38.783c8.266,2.127,16.854,0.906,24.185-3.438c7.321-4.338,12.523-11.28,14.648-19.546
		c8.458-32.899,28.926-55.002,50.932-55.002c22.006,0,42.474,22.104,50.932,55.002c2.125,8.266,7.328,15.208,14.648,19.546
		c4.977,2.949,10.533,4.459,16.174,4.459c2.668,0,5.356-0.338,8.01-1.021c32.993-8.489,63.925-21.537,91.938-38.783
		c0.952-0.586,1.722-1.427,2.221-2.427c6.108-12.219,10.819-24.486,14.161-36.777h19.645c3.313,0,6-2.687,6-6v-71.058
		C447.459,172.703,444.773,170.016,441.459,170.016z M12,241.074v-59.058h9.729c-3.18,19.662-2.816,39.381,1.089,59.058H12z
		 M397.677,282.955c-26.601,16.171-55.921,28.444-87.173,36.485c-5.155,1.326-10.51,0.566-15.076-2.14
		c-4.568-2.707-7.816-7.044-9.145-12.211c-9.998-38.887-34.551-64.014-62.554-64.014s-52.557,25.127-62.554,64.014
		c-1.329,5.167-4.576,9.504-9.145,12.211c-4.566,2.707-9.921,3.467-15.076,2.14c-31.251-8.041-60.571-20.313-87.173-36.485
		c-20.897-42.684-23.785-85.91-8.576-128.5c4.08-11.426,14.582-19.475,26.753-20.507c103.361-8.759,208.178-8.759,311.54,0
		c12.172,1.032,22.673,9.081,26.753,20.507C421.462,197.045,418.574,240.272,397.677,282.955z M435.459,241.074h-10.818
		c3.905-19.677,4.27-39.396,1.089-59.058h9.729V241.074z"/>
</g>
<g>
</g>
<g>
</g>
<g>
</g>
<g>
</g>
<g>
</g>
<g>
</g>
<g>
</g>
<g>
</g>
<g>
</g>
<g>
</g>
<g>
</g>
<g>
</g>
<g>
</g>
<g>
</g>
<g>
</g>
</svg>
