<?xml version="1.0" encoding="iso-8859-1"?>
<!-- Generator: Adobe Illustrator 19.0.0, SVG Export Plug-In . SVG Version: 6.00 Build 0)  -->
<svg version="1.1" id="Capa_1" xmlns="http://www.w3.org/2000/svg" xmlns:xlink="http://www.w3.org/1999/xlink" x="0px" y="0px"
	 viewBox="0 0 512 512" style="enable-background:new 0 0 512 512;" xml:space="preserve">
<g>
	<g>
		<path d="M228.94,47.532c-3.888-12.765-9.654-24.874-17.139-35.994C206.933,4.313,198.826,0,190.113,0
			c-8.713,0-16.821,4.313-21.689,11.539c-15.064,22.366-23.026,48.446-23.026,75.421v168.86v31.563v214.578
			c0,5.545,4.495,10.039,10.039,10.039h69.351c5.545,0,10.039-4.495,10.039-10.039V287.383v-31.563V86.96
			C234.827,73.585,232.846,60.318,228.94,47.532z M165.476,189.982h49.272v28.508c-7.247-4.804-15.742-7.386-24.636-7.386
			c-9.099,0-17.567,2.739-24.636,7.424V189.982z M214.749,491.922h-49.273V373.298h49.273V491.922z M214.749,353.22h-49.273v-28.539
			c7.07,4.687,15.538,7.426,24.636,7.426c9.099,0,17.567-2.739,24.636-7.426V353.22z M214.749,287.383
			c0,13.59-11.052,24.646-24.636,24.646c-13.584,0-24.636-11.056-24.636-24.646v-31.563c0-13.584,11.052-24.636,24.636-24.636
			c6.583,0,12.771,2.564,17.426,7.219c4.649,4.649,7.21,10.834,7.21,17.417V287.383z M214.749,169.905h-49.273V86.96
			c0-22.963,6.779-45.164,19.601-64.204c1.628-2.416,4.064-2.677,5.036-2.677s3.408,0.261,5.035,2.675
			c6.371,9.464,11.278,19.769,14.588,30.637c3.327,10.891,5.014,22.186,5.014,33.57V169.905z"/>
	</g>
</g>
<g>
	<g>
		<path d="M364.463,63.069c-0.981-5.457-6.198-9.088-11.656-8.108c-5.457,0.98-9.087,6.198-8.108,11.656
			c1.204,6.701,1.813,13.545,1.813,20.342v82.944H297.24V86.96c0-22.964,6.777-45.164,19.6-64.204
			c1.63-2.416,4.066-2.677,5.038-2.677c0.972,0,3.408,0.261,5.037,2.677c3.098,4.599,9.337,5.815,13.935,2.717
			c4.599-3.098,5.815-9.337,2.717-13.935C338.698,4.313,330.59,0,321.877,0c-8.713,0-16.821,4.313-21.689,11.539
			c-15.064,22.366-23.026,48.446-23.026,75.421v168.86v31.563v214.578c0,5.545,4.495,10.039,10.039,10.039h69.351
			c5.545,0,10.039-4.495,10.039-10.039V287.383v-31.563V86.96C366.592,78.976,365.876,70.938,364.463,63.069z M346.514,491.922
			h-49.272V373.298h49.272V491.922z M346.514,353.22h-49.272v-28.539c7.07,4.687,15.538,7.426,24.636,7.426
			c9.099,0,17.567-2.739,24.636-7.426V353.22z M321.877,312.029c-13.584,0-24.636-11.056-24.636-24.646v-31.563
			c0-13.584,11.052-24.636,24.636-24.636c6.591,0,12.772,2.56,17.428,7.23c4.648,4.634,7.208,10.815,7.208,17.406v31.563h0
			C346.514,300.973,335.461,312.029,321.877,312.029z M346.514,218.49c-7.238-4.803-15.732-7.385-24.636-7.385
			c-9.099,0-17.567,2.739-24.636,7.424v-28.547h49.273V218.49z"/>
	</g>
</g>
<g>
	<g>
		<path d="M481.25,200.855c5.545,0,10.039-4.495,10.039-10.039c0-5.545-4.495-10.039-10.039-10.039h-1.907V86.909
			c0-5.545-4.495-10.039-10.039-10.039h-3.236c6.08-17.346,13.727-40.775,13.727-48.881C479.794,12.556,467.238,0,451.805,0
			c-15.439,0-27.999,12.556-27.999,27.989c0,8.106,7.652,31.534,13.735,48.881h-3.234c-5.545,0-10.039,4.495-10.039,10.039v93.867
			h-1.917c-5.545,0-10.039,4.495-10.039,10.039c0,5.545,4.495,10.039,10.039,10.039h19.416V450.67h-13.091
			c-5.545,0-10.039,4.495-10.039,10.039s4.495,10.039,10.039,10.039h13.091v31.212c0,5.545,4.495,10.039,10.039,10.039
			c5.545,0,10.039-4.495,10.039-10.039v-31.212h13.081c5.545,0,10.039-4.495,10.039-10.039s-4.495-10.039-10.039-10.039h-13.081
			V200.855H481.25z M459.264,180.776h-14.918V96.949h14.918V180.776z M451.802,56.367c-4.469-13.568-7.828-25.081-7.918-28.378
			c0-4.362,3.553-7.911,7.921-7.911c4.357,0,7.902,3.54,7.911,7.895C459.619,31.299,456.265,42.808,451.802,56.367z"/>
	</g>
</g>
<g>
	<g>
		<path d="M89.65,200.855c5.545,0,10.039-4.495,10.039-10.039c0-5.545-4.495-10.039-10.039-10.039h-1.917V86.909
			c0-5.545-4.495-10.039-10.039-10.039H74.46c6.084-17.347,13.735-40.775,13.735-48.881C88.194,12.556,75.634,0,60.195,0
			C44.762,0,32.206,12.556,32.206,27.989c0,8.106,7.647,31.535,13.727,48.881h-3.236c-5.545,0-10.039,4.495-10.039,10.039v93.867
			H30.75c-5.545,0-10.039,4.495-10.039,10.039c0,5.545,4.495,10.039,10.039,10.039h19.406V450.67H37.075
			c-5.545,0-10.039,4.495-10.039,10.039s4.495,10.039,10.039,10.039h13.081v31.212c0,5.545,4.495,10.039,10.039,10.039
			s10.039-4.495,10.039-10.039v-31.212h13.091c5.545,0,10.039-4.495,10.039-10.039S88.87,450.67,83.325,450.67H70.234V200.855H89.65
			z M67.654,180.776H52.736V96.949h7.458h0.001h7.459V180.776z M60.197,56.367c-4.466-13.567-7.823-25.079-7.913-28.378
			c0-4.362,3.549-7.911,7.911-7.911c4.362,0,7.912,3.54,7.921,7.895C68.02,31.299,64.664,42.809,60.197,56.367z"/>
	</g>
</g>
<g>
	<g>
		<path d="M348.361,28.612c-12.919,0-12.941,20.078,0,20.078C361.28,48.69,361.301,28.612,348.361,28.612z"/>
	</g>
</g>
<g>
</g>
<g>
</g>
<g>
</g>
<g>
</g>
<g>
</g>
<g>
</g>
<g>
</g>
<g>
</g>
<g>
</g>
<g>
</g>
<g>
</g>
<g>
</g>
<g>
</g>
<g>
</g>
<g>
</g>
</svg>
