<?xml version="1.0" encoding="iso-8859-1"?>
<!-- Generator: Adobe Illustrator 18.0.0, SVG Export Plug-In . SVG Version: 6.00 Build 0)  -->
<!DOCTYPE svg PUBLIC "-//W3C//DTD SVG 1.1//EN" "http://www.w3.org/Graphics/SVG/1.1/DTD/svg11.dtd">
<svg version="1.1" id="Capa_1" xmlns="http://www.w3.org/2000/svg" xmlns:xlink="http://www.w3.org/1999/xlink" x="0px" y="0px"
	 viewBox="0 0 437.211 437.211" style="enable-background:new 0 0 437.211 437.211;" xml:space="preserve">
<g>
	<path d="M366.326,64.022C320.81,23.462,260.336,1.124,196.047,1.124c-15.583,0-31.173,1.337-46.339,3.976
		c-52.64,9.157-99.484,37.709-131.904,80.397C12.638,92.3,9.309,97.531,7.626,101.489c-4.218,9.922-0.256,21.307,9.213,26.48
		l44.669,24.43c16.952,9.271,29.747,24.442,36.029,42.717c6.283,18.275,5.519,38.107-2.15,55.843l-39.675,91.743
		c-2.107,4.876-2.28,10.216-0.631,15.081L2.429,396.777c-1.279,0.947-2.129,2.363-2.364,3.937c-0.234,1.574,0.166,3.177,1.113,4.456
		l21.098,28.488c1.177,1.589,2.99,2.43,4.827,2.43c1.241,0,2.492-0.384,3.566-1.179L85.368,394.4
		c3.767,3.081,8.479,4.757,13.324,4.757c1.514,0,3.041-0.164,4.555-0.499l293.455-64.948c1.461-0.324,2.748-1.181,3.609-2.405
		c24.141-34.294,36.9-73.93,36.9-114.623C437.211,158.973,412.038,104.757,366.326,64.022z M108.886,191.215
		c-0.474-1.38-0.984-2.742-1.522-4.09h315.424c0.92,5.594,1.58,11.261,1.974,16.992H112.258
		C111.456,199.767,110.343,195.454,108.886,191.215z M67.266,141.871l-44.672-24.432c-4.029-2.201-5.717-7.041-3.925-11.255
		c0.875-2.057,3.092-6.056,8.692-13.429c30.58-40.266,74.76-67.197,124.404-75.833c14.489-2.52,29.388-3.798,44.283-3.798
		c110.332,0,202.696,69.621,224.356,162H101.488C93.366,161.232,81.613,149.718,67.266,141.871z M28.349,421.694L14.393,402.85
		l69.543-51.502l13.956,18.845L28.349,421.694z M391.818,322.501l-291.165,64.441c-1.644,0.364-3.319,0.253-4.856-0.266
		l14.058-10.411c2.663-1.972,3.223-5.729,1.251-8.393l-21.098-28.489c-0.947-1.279-2.363-2.129-3.937-2.364
		c-1.576-0.234-3.176,0.166-4.456,1.113l-15.519,11.493c0.119-0.733,0.326-1.459,0.63-2.162l39.674-91.742
		c5.454-12.612,7.872-26.143,7.242-39.606h311.56c0,0.189,0.008,0.378,0.008,0.567C425.211,254.145,413.673,290.681,391.818,322.501
		z"/>
	<path d="M157.502,163.124c11.58,0,21-9.42,21-21s-9.42-21-21-21s-21,9.42-21,21S145.922,163.124,157.502,163.124z M157.502,133.124
		c4.962,0,9,4.038,9,9s-4.038,9-9,9s-9-4.038-9-9S152.54,133.124,157.502,133.124z"/>
	<path d="M348.502,163.124c11.579,0,21-9.42,21-21s-9.421-21-21-21s-21,9.42-21,21S336.923,163.124,348.502,163.124z
		 M348.502,133.124c4.963,0,9,4.038,9,9s-4.037,9-9,9s-9-4.038-9-9S343.54,133.124,348.502,133.124z"/>
</g>
<g>
</g>
<g>
</g>
<g>
</g>
<g>
</g>
<g>
</g>
<g>
</g>
<g>
</g>
<g>
</g>
<g>
</g>
<g>
</g>
<g>
</g>
<g>
</g>
<g>
</g>
<g>
</g>
<g>
</g>
</svg>
